<svg width="145" height="130" viewBox="0 0 145 130" fill="none" xmlns="http://www.w3.org/2000/svg">
<path d="M102.599 34.4401L100.058 31.6633V32.9378L100.176 33.1657H6.47356C4.38884 33.1657 2.6586 34.9044 2.6586 36.9806V102.223L1.15625 102.806L3.70518 105.582C4.39728 106.274 5.44386 106.739 6.482 106.739H97.7455C101.096 106.739 103.763 104.08 103.763 100.721V37.1072C103.645 36.1788 103.299 35.2588 102.607 34.4486L102.599 34.4401Z" fill="#9AAA97"/>
<path d="M3.81496 30.5088H97.1632C99.248 30.5088 100.978 32.2475 100.978 34.3237V100.14C100.978 102.225 99.2395 103.955 97.1632 103.955H3.81496C1.73023 103.955 0 102.216 0 100.14V34.4419C0 32.2475 1.73867 30.5088 3.81496 30.5088Z" fill="url(#paint0_linear_2489_4782)"/>
<path d="M97.1632 30.5088H3.81496C1.73023 30.5088 0 32.2475 0 34.3237V40.4513H101.096V34.3237C101.096 32.239 99.3577 30.5088 97.1632 30.5088Z" fill="#D5E0D5"/>
<path d="M65.3525 78.9796H47.0795C46.1511 78.9796 45.3408 78.1694 45.3408 77.241V66.2519C45.3408 65.3234 46.1511 64.5132 47.0795 64.5132H65.3525C66.2809 64.5132 67.0911 65.3234 67.0911 66.2519V77.241C67.2093 78.1694 66.399 78.9796 65.3525 78.9796ZM88.833 64.5216H70.56C69.6316 64.5216 68.8214 65.3319 68.8214 66.2603V77.2494C68.8214 78.1778 69.6316 78.9881 70.56 78.9881H88.833C89.7614 78.9881 90.5717 78.1778 90.5717 77.2494V66.2603C90.5717 65.3319 89.7614 64.5216 88.833 64.5216ZM65.3525 80.6001H47.0795C46.1511 80.6001 45.3408 81.4104 45.3408 82.3388V93.3279C45.3408 94.2563 46.1511 95.0666 47.0795 95.0666H65.3525C66.2809 95.0666 67.0911 94.2563 67.0911 93.3279V82.3388C67.2093 81.4104 66.399 80.6001 65.3525 80.6001ZM88.833 80.6001H70.56C69.6316 80.6001 68.8214 81.4104 68.8214 82.3388V93.3279C68.8214 94.2563 69.6316 95.0666 70.56 95.0666H88.833C89.7614 95.0666 90.5717 94.2563 90.5717 93.3279V82.3388C90.5717 81.4104 89.7614 80.6001 88.833 80.6001Z" fill="#E4EBE4"/>
<path d="M32.3849 78.1702H8.79463C8.33042 78.1702 8.10254 77.8242 8.10254 77.36C8.10254 76.8958 8.44859 76.5497 8.79463 76.5497H32.3933C32.8576 76.5497 33.2036 76.8958 33.2036 77.36C33.0854 77.8242 32.7394 78.1702 32.3933 78.1702H32.3849ZM90.5714 48.5537C90.5714 48.0895 90.2254 47.7434 89.7612 47.7434H46.1508C45.6866 47.7434 45.3406 48.0895 45.3406 48.5537C45.3406 49.0179 45.6866 49.3639 46.1508 49.3639H89.8793C90.2254 49.3639 90.5714 49.0179 90.5714 48.5537ZM90.5714 53.6431C90.5714 53.1789 90.2254 52.951 89.7612 52.951H46.1508C45.6866 52.951 45.3406 53.297 45.3406 53.6431C45.3406 54.1073 45.6866 54.4533 46.1508 54.4533H89.8793C90.2254 54.3352 90.5714 53.9891 90.5714 53.6431ZM90.5714 58.6143C90.5714 58.1501 90.2254 57.8041 89.7612 57.8041H46.1508C45.6866 57.8041 45.3406 58.1501 45.3406 58.6143C45.3406 59.0786 45.6866 59.3064 46.1508 59.3064H89.8793C90.2254 59.4246 90.5714 59.0786 90.5714 58.6143Z" fill="#BDA1E7"/>
<path d="M20.3577 73.3083C27.3883 73.3083 33.0854 67.6112 33.0854 60.5806C33.0854 53.5499 27.3883 47.8528 20.3577 47.8528C13.327 47.8528 7.62988 53.5499 7.62988 60.5806C7.62988 67.6112 13.327 73.3083 20.3577 73.3083Z" fill="#C3D2C3"/>
<path d="M23.2516 62.9011L22.7875 59.0867H17.9266L17.4624 62.9011H23.2432H23.2516Z" fill="url(#paint1_linear_2489_4782)"/>
<path d="M20.3576 61.5084C21.8597 61.5084 23.2522 62.2004 23.2522 62.2004L23.0243 60.6982H20.02L20.366 61.5084H20.3576Z" fill="url(#paint2_linear_2489_4782)"/>
<path d="M17.3527 60.471C17.4315 60.5497 17.4315 60.5497 17.3527 60.471C19.2011 61.7454 21.5137 61.7454 23.3706 60.471C25.6832 58.8504 26.1474 55.6094 24.5269 53.2968C22.9063 50.9842 19.6653 50.52 17.3527 52.1405C15.0401 53.761 14.5759 57.002 16.1964 59.3146C16.5425 59.7789 16.8885 60.2431 17.3527 60.471Z" fill="url(#paint3_radial_2489_4782)"/>
<path d="M31.3464 64.4037C30.3083 62.7832 28.4515 61.8547 26.6031 61.8547C26.1388 61.8547 25.5649 61.9729 25.1007 62.0826L23.7165 62.4287C21.5221 63.011 19.2095 63.011 17.1247 62.4287L15.7406 62.0826C15.2763 61.9645 14.7024 61.8547 14.2382 61.8547C12.2716 61.8547 10.533 62.7832 9.49483 64.4037C9.26694 64.8679 9.03062 65.3321 8.80273 65.7879C11.6977 72.2615 19.2095 75.1564 25.5734 72.2615C28.4683 70.987 30.7809 68.6744 32.047 65.7879C31.8191 65.2055 31.5828 64.7497 31.3549 64.4037H31.3464Z" fill="url(#paint4_radial_2489_4782)"/>
<path d="M14.339 35.4866C14.339 36.6428 13.4107 37.6808 12.1448 37.6808C10.9887 37.6808 9.95068 36.7525 9.95068 35.4866C9.95068 34.3305 10.879 33.2925 12.1448 33.2925C13.301 33.4106 14.339 34.3305 14.339 35.4866Z" fill="url(#paint5_radial_2489_4782)"/>
<path d="M7.62904 35.4866C7.62904 36.6428 6.70074 37.6808 5.43488 37.6808C4.27873 37.6808 3.24072 36.7525 3.24072 35.4866C3.24072 34.3305 4.16902 33.2925 5.43488 33.2925C6.70918 33.4106 7.62904 34.3305 7.62904 35.4866Z" fill="url(#paint6_radial_2489_4782)"/>
<path d="M100.987 56.1404C99.0707 58.3602 97.4333 60.8247 96.1419 63.4749L94.8844 66.0492C94.8084 66.2011 94.7493 66.353 94.6902 66.5049C94.0066 68.4209 94.7155 70.4887 96.277 71.6281L87.7862 81.4525C87.7355 81.5116 87.7018 81.5791 87.668 81.6466C87.6343 81.7141 87.6174 81.7901 87.6089 81.8661C87.6089 81.8745 87.6089 81.8829 87.6089 81.8914L87.1363 87.867C87.1194 88.1287 87.3135 88.365 87.5752 88.3819C87.6258 88.3819 87.6765 88.3819 87.7271 88.3734L88.7737 88.1371L93.5761 87.0483C93.7365 87.0146 93.88 86.9217 93.9897 86.7951L100.995 78.6925V56.1235L100.987 56.1404Z" fill="#D5E0D5"/>
<path d="M87.668 81.6472C87.6343 81.7147 87.6174 81.7907 87.6089 81.8666C87.6089 81.8751 87.6089 81.8835 87.6089 81.892L87.1363 87.8676C87.1194 88.1292 87.3135 88.3656 87.5752 88.3825C87.6258 88.3825 87.6765 88.3825 87.7271 88.374L88.7737 88.1377L90.5883 87.7241V82.3224C90.5883 81.394 89.778 80.5837 88.8496 80.5837H88.5373L87.7946 81.4446C87.744 81.5037 87.7102 81.5712 87.6764 81.6388L87.668 81.6472Z" fill="#C3D2C3"/>
<path d="M117.732 56.9419L117.166 57.4567C113.858 60.4699 112.929 65.2977 114.879 69.3236L119.546 78.9285C120.255 80.3971 121.867 81.1905 123.471 80.8698C125.404 80.4815 126.661 78.5994 126.273 76.6581C126.214 76.3796 126.13 76.118 126.012 75.8563L122.104 67.4246" fill="url(#paint7_radial_2489_4782)"/>
<path d="M117.891 57.7351C117.022 58.9335 116.381 60.2668 115.976 61.6846C116.389 60.6213 117.216 59.7689 118.263 59.3217C118.119 58.7984 118.001 58.2668 117.891 57.7351Z" fill="#51200F"/>
<path d="M117.892 57.7428C115.621 60.8657 114.921 64.8579 115.993 68.5631L118.111 75.923C118.77 78.2018 117.461 80.5819 115.174 81.2487C114.786 81.3584 114.381 81.4175 113.975 81.4175C112.127 81.4175 110.498 80.1768 110.025 78.3875L108.143 71.3568C106.624 65.7019 108.152 59.6588 112.178 55.4049L117.352 49.9272" fill="url(#paint8_radial_2489_4782)"/>
<path d="M117.596 56.0799L112.726 59.4137L112.414 59.8526C111.958 61.6082 111.671 63.4144 111.553 65.2206C112.608 63.6001 115.039 60.1227 116.921 59.2618C117.2 58.7301 117.52 58.2152 117.875 57.7257C117.765 57.1687 117.664 56.62 117.588 56.063L117.596 56.0799Z" fill="#51200F"/>
<path d="M142.376 48.1043C139.38 43.0909 134.316 39.6726 128.543 38.778C121.892 37.7398 115.123 39.6389 109.983 43.9855C104.134 48.9315 101.095 56.4432 101.863 64.0647L103.349 78.7168C103.56 80.8269 105.239 82.4812 107.349 82.6668C109.78 82.8778 111.924 81.0885 112.135 78.6578C112.152 78.4299 112.16 78.202 112.135 77.9825L111.544 69.0022C111.139 62.8578 112.701 56.7471 116.009 51.5479L117.368 49.4126C116.887 55.1603 118.119 60.925 120.904 65.9722L121.107 66.3436L127.243 75.1045L131.742 74.3111C137.093 73.3658 141.574 69.7365 143.625 64.7062C145.828 59.2876 145.364 53.1431 142.359 48.1128L142.376 48.1043Z" fill="url(#paint9_radial_2489_4782)"/>
<path d="M142.376 48.1043C139.38 43.0909 134.316 39.6726 128.543 38.778C121.892 37.7398 115.123 39.6389 109.983 43.9855C104.134 48.9315 101.095 56.4432 101.863 64.0647L103.349 78.7168C103.56 80.8269 105.239 82.4812 107.349 82.6668C109.78 82.8778 111.924 81.0885 112.135 78.6578C112.152 78.4299 112.16 78.202 112.135 77.9825L111.544 69.0022C111.139 62.8578 112.701 56.7471 116.009 51.5479L117.368 49.4126C116.887 55.1603 118.119 60.925 120.904 65.9722L121.107 66.3436L127.243 75.1045L131.742 74.3111C137.093 73.3658 141.574 69.7365 143.625 64.7062C145.828 59.2876 145.364 53.1431 142.359 48.1128L142.376 48.1043Z" fill="url(#paint10_radial_2489_4782)"/>
<path d="M102.86 73.8214L102.986 75.0874C102.733 72.5723 109.705 67.6601 111.503 67.2043C111.503 65.9889 111.57 64.782 111.722 63.5835L102.868 73.8299L102.86 73.8214Z" fill="#51200F"/>
<path d="M135.852 41.4784C133.759 40.1786 131.438 39.2924 129.016 38.8535L117.301 51.0158C117.242 53.2693 117.436 55.5229 117.892 57.7342C120.111 53.9952 130.594 44.6182 135.852 41.47V41.4784Z" fill="#51200F"/>
<path d="M112.128 77.6028C109.933 77.8813 107.73 78.1092 105.527 78.2864C104.759 78.3455 103.991 78.2358 103.274 77.9488L103.35 78.7084C103.578 81.1392 105.738 82.9201 108.161 82.6838C110.549 82.4559 112.322 80.3627 112.145 77.9742L112.119 77.6028H112.128Z" fill="url(#paint11_radial_2489_4782)"/>
<path d="M117.352 53.7515L113.891 55.6337C109.021 58.2839 105.13 62.4111 102.767 67.433C101.788 69.5177 99.3827 70.5221 97.2136 69.7456C94.8841 68.9185 93.6687 66.3527 94.4958 64.0232C94.5549 63.8628 94.614 63.7109 94.69 63.5674L95.9475 60.9932C98.0576 56.6634 101.062 52.8315 104.759 49.7509C110.667 44.8387 118.061 42.0619 125.741 41.8931H126.028" fill="url(#paint12_radial_2489_4782)"/>
<path d="M142.056 28.4898C142.47 28.0087 141.423 26.422 139.71 24.945C137.996 23.4679 136.275 22.6577 135.861 23.1388L87.5833 78.9789C87.4736 79.1055 87.4061 79.2574 87.3976 79.4263L86.925 85.4019C86.8997 85.6635 87.1022 85.8914 87.3639 85.9167C87.4145 85.9167 87.4652 85.9167 87.5158 85.9083L93.3648 84.5832C93.5252 84.5494 93.6771 84.4566 93.7784 84.33L142.056 28.4898Z" fill="url(#paint13_linear_2489_4782)"/>
<path d="M93.591 84.4726L93.3969 83.2827C93.3463 82.9789 93.0931 82.7595 92.7809 82.751H92.0635C91.7597 82.7341 91.4981 82.5147 91.4475 82.2109L91.3462 81.502C91.2956 81.1982 91.0424 80.9788 90.7302 80.9704H90.0128C89.7006 80.9535 89.439 80.7341 89.3968 80.4303L89.2786 79.7214C89.228 79.4176 88.9748 79.1982 88.6626 79.1897L87.4558 79.1729C87.4221 79.2572 87.3967 79.3416 87.3883 79.426L86.9157 85.4009C86.8904 85.6625 87.0929 85.8904 87.3545 85.9157C87.4052 85.9157 87.4558 85.9157 87.5064 85.9072L93.3547 84.5823C93.4391 84.5654 93.5151 84.5317 93.591 84.481V84.4726Z" fill="#C3D2C3"/>
<path d="M87.9197 84.8362C87.6581 84.6083 87.3458 84.4311 87.0167 84.3298L86.9323 85.4016C86.907 85.6632 87.1095 85.8911 87.3711 85.9164C87.4218 85.9164 87.4724 85.9164 87.523 85.9079L88.5695 85.6716C88.4176 85.351 88.1982 85.0725 87.9281 84.8446L87.9197 84.8362Z" fill="#13544E"/>
<path d="M119.875 63.8706L115.705 64.8497C111.511 65.8372 107.383 67.0947 103.357 68.614C101.104 69.4664 99.7788 71.7875 100.192 74.1592C100.64 76.7081 102.952 78.4974 105.527 78.2864C110.093 77.915 114.625 77.3327 119.141 76.5393L127.26 75.1045L128.948 74.8091L119.875 63.8875V63.8706Z" fill="url(#paint14_radial_2489_4782)"/>
<g opacity="0.5">
<path d="M106.629 76.5557C108.385 76.3579 109.655 74.8459 109.467 73.1786C109.279 71.5112 107.704 70.32 105.949 70.5178C104.193 70.7156 102.923 72.2276 103.111 73.8949C103.299 75.5623 104.874 76.7535 106.629 76.5557Z" fill="url(#paint15_radial_2489_4782)"/>
</g>
<path d="M106.629 76.5554C108.385 76.3576 109.655 74.8456 109.467 73.1783C109.279 71.511 107.704 70.3197 105.949 70.5175C104.193 70.7154 102.923 72.2274 103.111 73.8947C103.299 75.562 104.874 76.7533 106.629 76.5554Z" fill="url(#paint16_radial_2489_4782)"/>
<path d="M106.629 76.5554C108.385 76.3576 109.655 74.8456 109.467 73.1783C109.279 71.511 107.704 70.3197 105.949 70.5175C104.193 70.7154 102.923 72.2274 103.111 73.8947C103.299 75.562 104.874 76.7533 106.629 76.5554Z" fill="url(#paint17_radial_2489_4782)"/>
<path d="M109.147 72.1442C109.501 72.8868 109.527 73.756 109.206 74.5156C108.556 76.0852 106.7 76.8701 105.054 76.2709C104.337 76.0177 103.729 75.4945 103.375 74.8194C103.729 75.5451 104.353 76.1021 105.113 76.3722C106.759 76.9713 108.615 76.1865 109.265 74.6168C109.603 73.8151 109.56 72.9037 109.147 72.1357V72.1442Z" fill="url(#paint18_radial_2489_4782)"/>
<defs>
<linearGradient id="paint0_linear_2489_4782" x1="50.4891" y1="103.972" x2="50.4891" y2="30.5172" gradientUnits="userSpaceOnUse">
<stop stop-color="#F2F7F2"/>
<stop offset="0.62" stop-color="#F0F5F0"/>
<stop offset="0.91" stop-color="#E8EFE8"/>
<stop offset="1" stop-color="#E4EBE4"/>
</linearGradient>
<linearGradient id="paint1_linear_2489_4782" x1="17.4371" y1="60.9939" x2="23.3022" y2="60.9939" gradientUnits="userSpaceOnUse">
<stop offset="0.52" stop-color="#F7B0B2"/>
<stop offset="0.64" stop-color="#EEA5A8"/>
<stop offset="0.86" stop-color="#D5878D"/>
<stop offset="1" stop-color="#C17078"/>
</linearGradient>
<linearGradient id="paint2_linear_2489_4782" x1="21.6319" y1="62.2173" x2="21.6319" y2="60.7404" gradientUnits="userSpaceOnUse">
<stop stop-color="#A06069" stop-opacity="0"/>
<stop offset="0.46" stop-color="#A06069" stop-opacity="0.5"/>
<stop offset="0.82" stop-color="#A06069" stop-opacity="0.86"/>
<stop offset="1" stop-color="#A06069"/>
</linearGradient>
<radialGradient id="paint3_radial_2489_4782" cx="0" cy="0" r="1" gradientUnits="userSpaceOnUse" gradientTransform="translate(18.1315 53.9164) scale(6.08536 6.08536)">
<stop offset="0.68" stop-color="#F7B0B2"/>
<stop offset="0.8" stop-color="#E69B9F"/>
<stop offset="1" stop-color="#C17078"/>
</radialGradient>
<radialGradient id="paint4_radial_2489_4782" cx="0" cy="0" r="1" gradientUnits="userSpaceOnUse" gradientTransform="translate(23.202 64.2465) scale(15.4118 15.4117)">
<stop offset="0.68" stop-color="#1F57C3"/>
<stop offset="0.77" stop-color="#1C50AE"/>
<stop offset="0.97" stop-color="#143C79"/>
<stop offset="1" stop-color="#133970"/>
</radialGradient>
<radialGradient id="paint5_radial_2489_4782" cx="0" cy="0" r="1" gradientUnits="userSpaceOnUse" gradientTransform="translate(10.0347 33.7431) rotate(34.8053) scale(4.82993)">
<stop stop-color="#14A800"/>
<stop offset="0.33" stop-color="#14A500"/>
<stop offset="0.56" stop-color="#149C00"/>
<stop offset="0.75" stop-color="#138D00"/>
<stop offset="0.92" stop-color="#127800"/>
<stop offset="1" stop-color="#126B00"/>
</radialGradient>
<radialGradient id="paint6_radial_2489_4782" cx="0" cy="0" r="1" gradientUnits="userSpaceOnUse" gradientTransform="translate(3.3922 33.7431) rotate(37.3813) scale(4.54093)">
<stop stop-color="#01CDBE"/>
<stop offset="0.26" stop-color="#02CABE"/>
<stop offset="0.44" stop-color="#04C1BE"/>
<stop offset="0.59" stop-color="#08B2BF"/>
<stop offset="0.73" stop-color="#0D9DC0"/>
<stop offset="0.85" stop-color="#1481C1"/>
<stop offset="0.97" stop-color="#1D60C3"/>
<stop offset="1" stop-color="#1F57C3"/>
</radialGradient>
<radialGradient id="paint7_radial_2489_4782" cx="0" cy="0" r="1" gradientUnits="userSpaceOnUse" gradientTransform="translate(114.674 68.0619) rotate(-19.52) scale(9.56271 17.4998)">
<stop offset="0.38" stop-color="#BC5118"/>
<stop offset="0.49" stop-color="#B34D17"/>
<stop offset="0.67" stop-color="#9A4115"/>
<stop offset="0.9" stop-color="#722E11"/>
<stop offset="0.92" stop-color="#6D2B11"/>
</radialGradient>
<radialGradient id="paint8_radial_2489_4782" cx="0" cy="0" r="1" gradientUnits="userSpaceOnUse" gradientTransform="translate(107.299 70.0993) scale(11.7656 19.5309)">
<stop offset="0.38" stop-color="#BC5118"/>
<stop offset="0.51" stop-color="#AF4B17"/>
<stop offset="0.74" stop-color="#8C3A14"/>
<stop offset="0.92" stop-color="#6D2B11"/>
</radialGradient>
<radialGradient id="paint9_radial_2489_4782" cx="0" cy="0" r="1" gradientUnits="userSpaceOnUse" gradientTransform="translate(120.879 55.7469) scale(23.2695 30.2504)">
<stop offset="0.38" stop-color="#BC5118"/>
<stop offset="0.59" stop-color="#BA5018"/>
<stop offset="0.69" stop-color="#B24C17"/>
<stop offset="0.77" stop-color="#A54616"/>
<stop offset="0.84" stop-color="#933D14"/>
<stop offset="0.9" stop-color="#7B3212"/>
<stop offset="0.92" stop-color="#6D2B11"/>
</radialGradient>
<radialGradient id="paint10_radial_2489_4782" cx="0" cy="0" r="1" gradientUnits="userSpaceOnUse" gradientTransform="translate(112.322 49.0342) rotate(-34.8) scale(12.3648 6.55337)">
<stop offset="0.38" stop-color="#6D2B11"/>
<stop offset="0.47" stop-color="#6D2B11" stop-opacity="0.93"/>
<stop offset="0.59" stop-color="#6D2B11" stop-opacity="0.74"/>
<stop offset="0.75" stop-color="#6D2B11" stop-opacity="0.44"/>
<stop offset="0.92" stop-color="#6D2B11" stop-opacity="0"/>
</radialGradient>
<radialGradient id="paint11_radial_2489_4782" cx="0" cy="0" r="1" gradientUnits="userSpaceOnUse" gradientTransform="translate(104.226 78.7754) rotate(6.91001) scale(5.51987 6.78945)">
<stop offset="0.38" stop-color="#BC5118"/>
<stop offset="0.63" stop-color="#9B4115"/>
<stop offset="0.92" stop-color="#6D2B11"/>
</radialGradient>
<radialGradient id="paint12_radial_2489_4782" cx="0" cy="0" r="1" gradientUnits="userSpaceOnUse" gradientTransform="translate(101.754 48.0932) rotate(-39.76) scale(27.152 15.4767)">
<stop offset="0.38" stop-color="#BC5118"/>
<stop offset="0.59" stop-color="#BA5018"/>
<stop offset="0.69" stop-color="#B24C17"/>
<stop offset="0.77" stop-color="#A54616"/>
<stop offset="0.84" stop-color="#933D14"/>
<stop offset="0.9" stop-color="#7B3212"/>
<stop offset="0.92" stop-color="#6D2B11"/>
</radialGradient>
<linearGradient id="paint13_linear_2489_4782" x1="111.95" y1="54.1648" x2="118.382" y2="59.5243" gradientUnits="userSpaceOnUse">
<stop offset="0.04" stop-color="#14A800"/>
<stop offset="0.21" stop-color="#139500"/>
<stop offset="0.47" stop-color="#137E00"/>
<stop offset="0.71" stop-color="#127000"/>
<stop offset="0.92" stop-color="#126B00"/>
</linearGradient>
<radialGradient id="paint14_radial_2489_4782" cx="0" cy="0" r="1" gradientUnits="userSpaceOnUse" gradientTransform="translate(121.728 64.7094) rotate(-9.25) scale(26.7891 14.734)">
<stop offset="0.38" stop-color="#BC5118"/>
<stop offset="0.59" stop-color="#BA5018"/>
<stop offset="0.69" stop-color="#B24C17"/>
<stop offset="0.77" stop-color="#A54616"/>
<stop offset="0.84" stop-color="#933D14"/>
<stop offset="0.9" stop-color="#7B3212"/>
<stop offset="0.92" stop-color="#6D2B11"/>
</radialGradient>
<radialGradient id="paint15_radial_2489_4782" cx="0" cy="0" r="1" gradientUnits="userSpaceOnUse" gradientTransform="translate(79.4313 67.0695) rotate(-0.66) scale(6.34618 6.02887)">
<stop offset="0.43" stop-color="#E4EBE4"/>
<stop offset="0.49" stop-color="#E3EAE3" stop-opacity="0.91"/>
<stop offset="0.64" stop-color="#DFE8DF" stop-opacity="0.68"/>
<stop offset="0.84" stop-color="#DAE4DA" stop-opacity="0.32"/>
<stop offset="1" stop-color="#D5E0D5" stop-opacity="0"/>
</radialGradient>
<radialGradient id="paint16_radial_2489_4782" cx="0" cy="0" r="1" gradientUnits="userSpaceOnUse" gradientTransform="translate(102 74) scale(8 7.6)">
<stop offset="0.43" stop-color="#D5E0D5" stop-opacity="0"/>
<stop offset="0.56" stop-color="#D5E0D5" stop-opacity="0"/>
<stop offset="0.64" stop-color="#D6E1D6" stop-opacity="0.05"/>
<stop offset="0.71" stop-color="#D7E1D7" stop-opacity="0.11"/>
<stop offset="0.76" stop-color="#D8E2D8" stop-opacity="0.19"/>
<stop offset="0.82" stop-color="#DAE3DA" stop-opacity="0.31"/>
<stop offset="0.87" stop-color="#DCE5DC" stop-opacity="0.44"/>
<stop offset="0.91" stop-color="#DEE7DE" stop-opacity="0.61"/>
<stop offset="0.96" stop-color="#E1E9E1" stop-opacity="0.79"/>
<stop offset="1" stop-color="#E4EBE4"/>
</radialGradient>
<radialGradient id="paint17_radial_2489_4782" cx="0" cy="0" r="1" gradientUnits="userSpaceOnUse" gradientTransform="translate(103 72.5) rotate(14.0363) scale(6.18466 5.87542)">
<stop offset="0.43" stop-color="#E4EBE4"/>
<stop offset="0.56" stop-color="#E4EBE4" stop-opacity="0.99"/>
<stop offset="0.64" stop-color="#E3EAE3" stop-opacity="0.95"/>
<stop offset="0.71" stop-color="#E2EAE2" stop-opacity="0.89"/>
<stop offset="0.76" stop-color="#E1E9E1" stop-opacity="0.81"/>
<stop offset="0.82" stop-color="#DFE8DF" stop-opacity="0.69"/>
<stop offset="0.87" stop-color="#DDE6DD" stop-opacity="0.56"/>
<stop offset="0.91" stop-color="#DBE4DB" stop-opacity="0.39"/>
<stop offset="0.96" stop-color="#D8E2D8" stop-opacity="0.21"/>
<stop offset="1" stop-color="#D5E0D5" stop-opacity="0"/>
</radialGradient>
<radialGradient id="paint18_radial_2489_4782" cx="0" cy="0" r="1" gradientUnits="userSpaceOnUse" gradientTransform="translate(101.5 72) rotate(14.9314) scale(7.76209 7.37398)">
<stop offset="0.43" stop-color="#E4EBE4"/>
<stop offset="0.49" stop-color="#E3EAE3" stop-opacity="0.91"/>
<stop offset="0.64" stop-color="#DFE8DF" stop-opacity="0.68"/>
<stop offset="0.84" stop-color="#DAE4DA" stop-opacity="0.32"/>
<stop offset="1" stop-color="#D5E0D5" stop-opacity="0"/>
</radialGradient>
</defs>
</svg>
